# xmcd
#
# Track frame offsets: 
#        150
#        11908
#        24217
#        40862
#        53039
#        60060
#        74219
#        86437
#        100042
#        115283
#        130838
#
# Disc length: 1887 seconds
#
# Revision: 0
# Processed by: cddbd v1.5.2PL0 Copyright (c) Steve Scherf et al.
# Submitted via: ExactAudioCopy v0.99pb4
#
DISCID=87075d0b
DTITLE=Smith, Randal - Randall's Acoustic Journey
DYEAR=2010
DGENRE=Bluegrass
TTITLE0=The Hourglass
TTITLE1=Young Beautiful
TTITLE2=Freight Train
TTITLE3=Cindy
TTITLE4=Renegade Rambler
TTITLE5=Yesterday
TTITLE6=Roam
TTITLE7=Oil Stain
TTITLE8=Ocean Take Me Far Away
TTITLE9=Cantada Commigo
TTITLE10=Going Back to Eugene
EXTD=
EXTT0=
EXTT1=
EXTT2=
EXTT3=
EXTT4=
EXTT5=
EXTT6=
EXTT7=
EXTT8=
EXTT9=
EXTT10=
PLAYORDER=
